<svg width="180" height="250" viewBox="0 0 180 250" fill="none" xmlns="http://www.w3.org/2000/svg">
  <ellipse cx="90" cy="60" rx="45" ry="25" fill="#fff" stroke="#f7a13d" stroke-width="3"/>
  <path d="M45 60 Q90 10 135 60" fill="#f7a13d"/>
  <rect x="110" y="38" width="13" height="35" rx="6" fill="#f7a13d" stroke="#fff" stroke-width="2" transform="rotate(-10 116 55)"/>
  <rect x="124" y="44" width="10" height="28" rx="5" fill="#f7a13d" stroke="#fff" stroke-width="2" transform="rotate(-5 129 58)"/>
  <g>
    <ellipse cx="38" cy="38" rx="3" ry="10" fill="#f7a13d" transform="rotate(-25 38 38)"/>
    <ellipse cx="30" cy="52" rx="2.5" ry="7" fill="#f7a13d" transform="rotate(-20 30 52)"/>
    <ellipse cx="48" cy="26" rx="2.5" ry="7" fill="#f7a13d" transform="rotate(-35 48 26)"/>
  </g>
  <g>
    <ellipse cx="142" cy="38" rx="3" ry="10" fill="#f7a13d" transform="rotate(25 142 38)"/>
    <ellipse cx="150" cy="52" rx="2.5" ry="7" fill="#f7a13d" transform="rotate(20 150 52)"/>
    <ellipse cx="132" cy="26" rx="2.5" ry="7" fill="#f7a13d" transform="rotate(35 132 26)"/>
  </g>
  <text x="90" y="110" text-anchor="middle" font-family="Segoe Script, Brush Script MT, cursive" font-weight="bold" font-size="32" fill="#4b2170">Mofisbliss</text>
  <text x="90" y="135" text-anchor="middle" font-family="Segoe Script, Brush Script MT, cursive" font-weight="bold" font-size="32" fill="#4b2170">Bread</text>
  <text x="90" y="150" text-anchor="middle" font-family="Arial, sans-serif" font-size="10" fill="#4b2170">A division under Blissful Foods and Beverages Ltd</text>
  <g>
    <rect x="40" y="170" width="100" height="28" rx="10" fill="#f7a13d" stroke="#fff" stroke-width="3"/>
    <text x="90" y="190" text-anchor="middle" font-family="Arial, sans-serif" font-weight="bold" font-size="16" fill="#fff">NEAT & SWEET</text>
  </g>
</svg> 